<mxfile host="app.diagrams.net" modified="2021-01-14T10:16:49.042Z" agent="5.0 (Windows NT 10.0; Win64; x64) AppleWebKit/537.36 (KHTML, like Gecko) Chrome/87.0.4280.141 Safari/537.36" etag="45QiHHqmT7cZi8Pd7_-v" version="14.1.9" type="github" pages="2">
  <diagram id="sbUNtwg3yLVNPfPU_n5I" name="Page-2">
    <mxGraphModel dx="765" dy="497" grid="1" gridSize="10" guides="1" tooltips="1" connect="1" arrows="1" fold="1" page="1" pageScale="1" pageWidth="827" pageHeight="1169" math="0" shadow="0">
      <root>
        <mxCell id="uYNDzks5oYsA59AH7kwr-0" />
        <mxCell id="uYNDzks5oYsA59AH7kwr-1" parent="uYNDzks5oYsA59AH7kwr-0" />
        <mxCell id="xzsdaIJkfm3ZBpOXbgYg-0" value="" style="rounded=1;whiteSpace=wrap;html=1;direction=south;" vertex="1" parent="uYNDzks5oYsA59AH7kwr-1">
          <mxGeometry x="125" y="40" width="420" height="380" as="geometry" />
        </mxCell>
        <mxCell id="xzsdaIJkfm3ZBpOXbgYg-13" value="" style="strokeWidth=1;shadow=0;dashed=0;align=center;html=1;shape=mxgraph.mockup.rrect;rSize=10;fillColor=#ffffff;strokeColor=#666666;" vertex="1" parent="uYNDzks5oYsA59AH7kwr-1">
          <mxGeometry x="150" y="90" width="370" height="30" as="geometry" />
        </mxCell>
        <mxCell id="xzsdaIJkfm3ZBpOXbgYg-16" value="giorno" style="strokeColor=inherit;fillColor=inherit;gradientColor=inherit;strokeWidth=1;shadow=0;dashed=0;align=center;html=1;shape=mxgraph.mockup.rightButton;rSize=10;fontSize=17;fontColor=#666666;fontStyle=1;resizeHeight=1;" vertex="1" parent="xzsdaIJkfm3ZBpOXbgYg-13">
          <mxGeometry x="1" width="256" height="30" relative="1" as="geometry">
            <mxPoint x="-256" as="offset" />
          </mxGeometry>
        </mxCell>
        <mxCell id="xzsdaIJkfm3ZBpOXbgYg-17" value="orario" style="strokeWidth=1;shadow=0;dashed=0;align=center;html=1;shape=mxgraph.mockup.leftButton;rSize=10;fontSize=17;fontColor=#ffffff;fontStyle=1;fillColor=#008cff;strokeColor=#008cff;resizeHeight=1;" vertex="1" parent="xzsdaIJkfm3ZBpOXbgYg-13">
          <mxGeometry width="190" height="30" relative="1" as="geometry">
            <mxPoint x="-10" as="offset" />
          </mxGeometry>
        </mxCell>
        <mxCell id="xzsdaIJkfm3ZBpOXbgYg-18" value="" style="strokeWidth=1;shadow=0;dashed=0;align=center;html=1;shape=mxgraph.mockup.buttons.multiButton;fillColor=#008cff;strokeColor=#666666;mainText=;subText=;" vertex="1" parent="uYNDzks5oYsA59AH7kwr-1">
          <mxGeometry x="190" y="205" width="270" height="50" as="geometry" />
        </mxCell>
        <mxCell id="xzsdaIJkfm3ZBpOXbgYg-19" value="fai clic per avere l&#39;&lt;br&gt;orario&amp;nbsp;" style="strokeWidth=1;shadow=0;dashed=0;align=center;html=1;shape=mxgraph.mockup.anchor;fontSize=16;fontColor=#ffffff;fontStyle=1;whiteSpace=wrap;" vertex="1" parent="xzsdaIJkfm3ZBpOXbgYg-18">
          <mxGeometry y="15" width="270" height="20" as="geometry" />
        </mxCell>
      </root>
    </mxGraphModel>
  </diagram>
  <diagram id="lvpu5Et_NLV1yh8orTiW" name="Page-1">
    <mxGraphModel dx="765" dy="497" grid="1" gridSize="10" guides="1" tooltips="1" connect="1" arrows="1" fold="1" page="1" pageScale="1" pageWidth="827" pageHeight="1169" math="0" shadow="0">
      <root>
        <mxCell id="0" />
        <mxCell id="1" parent="0" />
        <mxCell id="Y1vyXTNSKtx9aKxiHuIc-1" value="" style="rounded=1;whiteSpace=wrap;html=1;direction=south;" vertex="1" parent="1">
          <mxGeometry x="115" y="40" width="420" height="380" as="geometry" />
        </mxCell>
        <mxCell id="Y1vyXTNSKtx9aKxiHuIc-2" value="&lt;b&gt;&lt;font style=&quot;font-size: 16px&quot;&gt;&lt;i&gt;orario di oggi&lt;/i&gt;&lt;/font&gt;&lt;/b&gt;" style="rounded=0;whiteSpace=wrap;html=1;fillColor=#dae8fc;strokeColor=#6c8ebf;" vertex="1" parent="1">
          <mxGeometry x="150" y="180" width="350" height="40" as="geometry" />
        </mxCell>
        <mxCell id="Y1vyXTNSKtx9aKxiHuIc-3" value="&amp;nbsp;9:50&amp;nbsp; &amp;nbsp; &amp;nbsp; &amp;nbsp; &amp;nbsp;ufficio marketing&lt;br&gt;11:20&amp;nbsp; &amp;nbsp; &amp;nbsp; &amp;nbsp;ufficio management&lt;br&gt;12:30&amp;nbsp; &amp;nbsp; &amp;nbsp; &amp;nbsp;riunione generale&lt;br&gt;14:20&amp;nbsp; &amp;nbsp; &amp;nbsp; &amp;nbsp;ufficio marketing" style="rounded=0;whiteSpace=wrap;html=1;align=left;" vertex="1" parent="1">
          <mxGeometry x="150" y="220" width="350" height="70" as="geometry" />
        </mxCell>
        <mxCell id="5rwvTfweqFhuClLZDNay-1" value="" style="strokeWidth=1;shadow=0;dashed=0;align=center;html=1;shape=mxgraph.mockup.rrect;rSize=10;fillColor=#ffffff;strokeColor=#666666;" vertex="1" parent="1">
          <mxGeometry x="150" y="90" width="370" height="30" as="geometry" />
        </mxCell>
        <mxCell id="5rwvTfweqFhuClLZDNay-2" value="giorno" style="strokeColor=inherit;fillColor=inherit;gradientColor=inherit;strokeWidth=1;shadow=0;dashed=0;align=center;html=1;shape=mxgraph.mockup.rightButton;rSize=10;fontSize=17;fontColor=#666666;fontStyle=1;resizeHeight=1;" vertex="1" parent="5rwvTfweqFhuClLZDNay-1">
          <mxGeometry x="1" width="256" height="30" relative="1" as="geometry">
            <mxPoint x="-256" as="offset" />
          </mxGeometry>
        </mxCell>
        <mxCell id="5rwvTfweqFhuClLZDNay-3" value="orario" style="strokeWidth=1;shadow=0;dashed=0;align=center;html=1;shape=mxgraph.mockup.leftButton;rSize=10;fontSize=17;fontColor=#ffffff;fontStyle=1;fillColor=#008cff;strokeColor=#008cff;resizeHeight=1;" vertex="1" parent="5rwvTfweqFhuClLZDNay-1">
          <mxGeometry width="190" height="30" relative="1" as="geometry">
            <mxPoint x="-10" as="offset" />
          </mxGeometry>
        </mxCell>
      </root>
    </mxGraphModel>
  </diagram>
</mxfile>
